<?xml version="1.0" encoding="UTF-8"?>
<svg id="Layer_1" data-name="Layer 1" xmlns="http://www.w3.org/2000/svg" viewBox="0 0 1062.94 1748.83">
  <defs>
    <style>
      .cls-1 {
        fill: #fff;
      }
    </style>
  </defs>
  <path class="cls-1" d="M1062.94,0V1748.83c-4.57-1.55-8.28-2.71-11.93-4.05-103.18-37.81-206.35-75.62-309.52-113.45-51.59-18.92-103.17-37.83-154.73-56.83-15.03-5.54-15.03-5.69-15.03-21.58,.05-272.3,.12-544.6,.16-816.91,.02-110.99,.14-221.99-.28-332.98-.05-11.97,4.03-19.63,13.28-26.89,105.39-82.67,210.51-165.69,315.7-248.62,50.76-40.02,101.52-80.05,152.3-120.06,2.81-2.21,5.74-4.27,10.05-7.46h0Z"/>
  <path class="cls-1" d="M.01,.29C17.4,13.95,33.36,26.45,49.28,39.01c124.29,98.01,248.57,196.04,372.86,294.05,18.58,14.65,37.03,29.47,55.88,43.76,8.76,6.64,12.32,14.62,12.32,25.64-.17,383.66-.14,767.33-.15,1150.99,0,14.09-1.71,16.56-14.72,21.32-123.84,45.3-247.69,90.57-371.53,135.87-30.96,11.33-61.88,22.77-92.83,34.12-3.37,1.24-6.82,2.27-11.11,3.69V.29H.01Z"/>
</svg>